<?xml version="1.0" encoding="UTF-8" standalone="no"?>
<svg
   xmlns:dc="http://purl.org/dc/elements/1.1/"
   xmlns:cc="http://creativecommons.org/ns#"
   xmlns:rdf="http://www.w3.org/1999/02/22-rdf-syntax-ns#"
   xmlns:svg="http://www.w3.org/2000/svg"
   xmlns="http://www.w3.org/2000/svg"
   xmlns:sodipodi="http://sodipodi.sourceforge.net/DTD/sodipodi-0.dtd"
   xmlns:inkscape="http://www.inkscape.org/namespaces/inkscape"
   id="Artwork"
   viewBox="0 0 1377.5541 263.47308"
   version="1.1"
   sodipodi:docname="RHPDS-Logo.svg"
   width="319"
   height="61"
   inkscape:version="1.0.2 (e86c870879, 2021-01-15)">
  <metadata
     id="metadata62">
    <rdf:RDF>
      <cc:Work
         rdf:about="">
        <dc:format>image/svg+xml</dc:format>
        <dc:type
           rdf:resource="http://purl.org/dc/dcmitype/StillImage" />
        <dc:title>Logo-Red_Hat-Ecosystem_Catalog-A-Reverse-RGB</dc:title>
      </cc:Work>
    </rdf:RDF>
  </metadata>
  <sodipodi:namedview
     pagecolor="#000000"
     bordercolor="#666666"
     borderopacity="1"
     objecttolerance="10"
     gridtolerance="10"
     guidetolerance="10"
     inkscape:pageopacity="0"
     inkscape:pageshadow="2"
     inkscape:window-width="1920"
     inkscape:window-height="1016"
     id="namedview60"
     showgrid="false"
     inkscape:pagecheckerboard="false"
     showguides="false"
     inkscape:zoom="3.6332312"
     inkscape:cx="152.05334"
     inkscape:cy="26.381702"
     inkscape:window-x="1920"
     inkscape:window-y="27"
     inkscape:window-maximized="1"
     inkscape:current-layer="text879"
     inkscape:document-rotation="0" />
  <defs
     id="defs4">
    <style
       id="style2">.cls-1{fill:#fff;}.cls-2{fill:#e00;}</style>
  </defs>
  <title
     id="title6">Logo-Red_Hat-Ecosystem_Catalog-A-Reverse-RGB</title>
  <g
     id="Logos"
     inkscape:groupmode="layer"
     inkscape:label="Logo">
    <g
       aria-label="Product Demo System"
       id="text66"
       style="fill:#ffffff;fill-opacity:1;stroke:none"
       inkscape:label="Product Demo System">
      <g
         aria-label="Product Demo System"
         id="text40"
         style="fill:#ffffff;fill-opacity:1;stroke:none;stroke-width:4.31923"
         inkscape:label="text">
        <path
           d="m 1289.3144,236.46844 h 11.5179 v -42.61623 c 3.225,-4.72233 7.717,-7.14109 13.2456,-7.14109 8.1777,0 13.4759,5.75895 13.4759,14.85809 v 34.89923 h 11.4027 v -36.85728 c 0,-1.72768 -0.2303,-3.34019 -0.4607,-4.95269 3.3402,-5.29824 8.0626,-7.94735 13.7063,-7.94735 8.2929,0 13.476,5.75895 13.476,14.85809 v 34.89923 h 11.5179 v -36.85728 c 0,-13.59112 -8.984,-22.92062 -21.9992,-22.92062 -8.2929,0 -14.9733,3.34019 -19.8108,9.79022 -3.6857,-6.10449 -10.1358,-9.79022 -18.0831,-9.79022 -6.5652,0 -12.0938,2.30358 -16.4706,6.79556 v -5.64377 h -11.5179 z"
           style="fill:#ffffff;fill-opacity:1;stroke-width:4.31923"
           id="path937"
           inkscape:label="m" />
        <path
           d="m 1252.5003,237.50506 c 8.7536,0 15.7796,-2.41876 22.6903,-7.717 l -7.3715,-7.25627 c -3.6857,3.34019 -9.0991,5.18305 -14.858,5.18305 -10.1358,0 -18.0831,-7.1411 -19.6957,-16.81613 h 46.1868 v -3.22502 c 0,-17.39202 -12.2089,-30.86797 -28.334,-30.86797 -16.4706,0 -29.3707,13.36077 -29.3707,30.29208 0,17.16167 13.476,30.40726 30.7528,30.40726 z m -19.1197,-35.24478 c 1.6125,-9.3295 8.6385,-15.66434 17.5072,-15.66434 8.5233,0 15.5492,6.68038 17.1617,15.66434 z"
           style="fill:#ffffff;fill-opacity:1;stroke-width:4.31923"
           id="path935"
           inkscape:label="e" />
        <path
           d="m 1206.8176,237.50506 c 3.3402,0 7.8321,-0.5759 10.942,-1.61251 v -9.67504 c -2.8795,1.03661 -5.1831,1.38215 -8.4081,1.38215 -6.2197,0 -8.6384,-2.30358 -8.6384,-8.29289 v -31.7894 h 17.2768 v -9.67504 h -17.2768 v -17.73756 l -11.4027,2.76429 v 14.97327 h -12.4394 v 9.67504 h 12.4394 v 34.43852 c 0,10.25093 6.1045,15.54917 17.5072,15.54917 z"
           style="fill:#ffffff;fill-opacity:1;stroke-width:4.31923"
           id="path933"
           inkscape:label="t" />
        <path
           d="m 1150.5385,237.62023 c 13.9366,0 24.5331,-7.94735 24.5331,-18.54381 0,-9.09915 -6.1045,-14.74292 -17.7376,-16.35542 l -10.5964,-1.49733 c -6.9108,-0.92143 -9.6751,-3.10983 -9.6751,-7.48663 0,-4.83752 4.7224,-8.06253 11.7483,-8.06253 6.2196,0 12.0938,1.95804 18.5438,6.21966 l 5.8741,-7.60181 c -7.2562,-5.06788 -14.9732,-7.60182 -23.4965,-7.60182 -13.8215,0 -23.0358,7.25628 -23.0358,17.73757 0,9.21432 5.759,14.85809 17.5072,16.4706 l 10.5965,1.49732 c 6.45,0.92144 9.4447,3.34019 9.4447,7.60182 0,5.18305 -5.759,8.7536 -14.0519,8.7536 -6.5652,0 -13.0152,-2.53394 -19.0045,-7.37145 l -6.3349,7.60181 c 6.4501,5.52859 15.5492,8.63842 25.685,8.63842 z"
           style="fill:#ffffff;fill-opacity:1;stroke-width:4.31923"
           id="path931"
           inkscape:label="s" />
        <path
           d="m 1073.527,261.23193 c 10.7117,0 17.0465,-4.9527 22.46,-17.50721 l 28.334,-65.88239 h -12.4393 l -18.8894,44.68946 -17.0465,-44.68946 h -12.7849 l 23.4966,58.74129 -2.534,5.64377 c -2.4187,5.87413 -6.2197,8.63843 -11.6331,8.63843 -2.1884,0 -3.5705,-0.11518 -5.0678,-0.46072 v 10.13576 c 1.3821,0.46071 3.5705,0.69107 6.1044,0.69107 z"
           style="fill:#ffffff;fill-opacity:1;stroke-width:4.31923"
           id="path929"
           inkscape:label="y" />
        <path
           d="m 1030.4936,237.62023 c 19.2349,0 32.1349,-10.02057 32.1349,-24.76348 0,-12.55451 -7.717,-19.58043 -24.7634,-22.34473 l -13.0153,-2.1884 c -10.3661,-1.6125 -14.3974,-4.72234 -14.3974,-11.28754 0,-7.1411 7.026,-11.97862 17.5073,-11.97862 8.9839,0 17.6223,3.22502 26.3759,9.9054 l 6.6804,-9.21432 c -9.0991,-7.02592 -20.9625,-10.94201 -32.4804,-10.94201 -17.968,0 -29.71623,9.21432 -29.71623,23.15098 0,11.63308 7.25623,18.42864 21.99923,20.96258 l 13.4759,2.1884 c 11.7483,1.95804 16.3554,5.41341 16.3554,12.66969 0,7.94735 -7.9473,13.47594 -19.5804,13.47594 -10.1358,0 -19.0045,-4.14644 -27.7581,-12.66969 l -7.3715,8.52325 c 9.2143,9.3295 21.6536,14.51255 34.5537,14.51255 z"
           style="fill:#ffffff;fill-opacity:1;stroke-width:4.31923"
           id="path927"
           inkscape:label="S" />
        <path
           d="m 938.43692,237.62023 c 17.04649,0 30.52243,-13.36076 30.52243,-30.40725 0,-17.04649 -13.47594,-30.52244 -30.52243,-30.52244 -17.0465,0 -30.52244,13.47595 -30.52244,30.52244 0,17.04649 13.47594,30.40725 30.52244,30.40725 z m 0,-10.13575 c -10.71165,0 -19.2349,-8.86878 -19.2349,-20.2715 0,-11.40272 8.52325,-20.38668 19.2349,-20.38668 10.71164,0 19.23489,8.98396 19.23489,20.38668 0,11.40272 -8.52325,20.2715 -19.23489,20.2715 z"
           style="fill:#ffffff;fill-opacity:1;stroke-width:4.31923"
           id="path925"
           inkscape:label="o" />
        <path
           d="m 810.51642,236.46844 h 11.5179 v -42.61623 c 3.22501,-4.72233 7.71699,-7.14109 13.24558,-7.14109 8.17771,0 13.47595,5.75895 13.47595,14.85809 v 34.89923 h 11.40272 v -36.85728 c 0,-1.72768 -0.23036,-3.34019 -0.46072,-4.95269 3.34019,-5.29824 8.06253,-7.94735 13.7063,-7.94735 8.29289,0 13.47594,5.75895 13.47594,14.85809 v 34.89923 h 11.5179 v -36.85728 c 0,-13.59112 -8.98396,-22.92062 -21.99918,-22.92062 -8.29289,0 -14.97327,3.34019 -19.81079,9.79022 -3.68573,-6.10449 -10.13575,-9.79022 -18.08311,-9.79022 -6.5652,0 -12.09379,2.30358 -16.47059,6.79556 v -5.64377 h -11.5179 z"
           style="fill:#ffffff;fill-opacity:1;stroke-width:4.31923"
           id="path923"
           inkscape:label="m" />
        <path
           d="m 773.70231,237.50506 c 8.7536,0 15.77952,-2.41876 22.69026,-7.717 l -7.37146,-7.25627 c -3.68572,3.34019 -9.09914,5.18305 -14.85809,5.18305 -10.13575,0 -18.0831,-7.1411 -19.69561,-16.81613 h 46.18678 v -3.22502 c 0,-17.39202 -12.20897,-30.86797 -28.33403,-30.86797 -16.4706,0 -29.37065,13.36077 -29.37065,30.29208 0,17.16167 13.47595,30.40726 30.7528,30.40726 z m -19.11972,-35.24478 c 1.61251,-9.3295 8.63843,-15.66434 17.50721,-15.66434 8.52325,0 15.54917,6.68038 17.16167,15.66434 z"
           style="fill:#ffffff;fill-opacity:1;stroke-width:4.31923"
           id="path921"
           inkscape:label="e" />
        <path
           d="m 664.32557,236.46844 h 28.44921 c 24.41795,0 42.50105,-17.16167 42.50105,-40.19747 0,-23.26615 -18.19828,-40.42783 -42.50105,-40.42783 h -28.44921 z m 12.09379,-10.82682 v -58.97165 h 16.58578 c 16.81613,0 29.83136,12.78487 29.83136,29.601 0,16.58578 -13.01523,29.37065 -29.83136,29.37065 z"
           style="fill:#ffffff;fill-opacity:1;stroke-width:4.31923"
           id="path919"
           inkscape:label="D" />
        <path
           d="m 621.33506,237.50506 c 3.3402,0 7.83218,-0.5759 10.94201,-1.61251 v -9.67504 c -2.87948,1.03661 -5.18306,1.38215 -8.40807,1.38215 -6.21966,0 -8.63842,-2.30358 -8.63842,-8.29289 v -31.7894 h 17.27685 v -9.67504 h -17.27685 v -17.73756 l -11.40272,2.76429 v 14.97327 h -12.43934 v 9.67504 h 12.43934 v 34.43852 c 0,10.25093 6.10448,15.54917 17.5072,15.54917 z"
           style="fill:#ffffff;fill-opacity:1;stroke-width:4.31923"
           id="path917"
           inkscape:label="t" />
        <path
           d="m 563.67378,237.50506 c 8.7536,0 17.04649,-3.57055 23.26615,-9.79022 l -7.02592,-7.37146 c -4.72233,4.72234 -9.90539,7.02592 -15.77952,7.02592 -10.82682,0 -19.23489,-8.7536 -19.23489,-20.2715 0,-11.28754 8.29289,-20.15633 19.00453,-20.15633 5.98931,0 11.63308,2.53394 16.12506,7.37146 l 7.1411,-7.94735 c -5.98931,-6.10449 -14.62773,-9.67504 -23.49651,-9.67504 -16.93132,0 -30.1769,13.36077 -30.1769,30.40726 0,17.16167 13.24558,30.40726 30.1769,30.40726 z"
           style="fill:#ffffff;fill-opacity:1;stroke-width:4.31923"
           id="path915"
           inkscape:label="c" />
        <path
           d="m 494.60965,237.62023 c 7.02592,0 13.01523,-2.41875 17.50721,-7.14109 v 5.9893 h 11.5179 v -58.62611 h -11.5179 v 42.04034 c -3.10984,4.9527 -8.17771,7.71699 -14.39738,7.71699 -8.98396,0 -14.62773,-5.75895 -14.62773,-14.97327 v -34.78406 h -11.40272 v 36.7421 c 0,13.59113 9.3295,23.0358 22.92062,23.0358 z"
           style="fill:#ffffff;fill-opacity:1;stroke-width:4.31923"
           id="path913"
           inkscape:label="u" />
        <path
           d="m 430.03761,237.38988 c 6.91074,0 13.1304,-2.30358 17.96792,-6.56521 v 5.64377 h 11.40272 v -82.8137 l -11.5179,2.1884 v 26.95189 c -5.06787,-3.80091 -11.17236,-5.87413 -17.62238,-5.87413 -16.81614,0 -29.83136,13.24559 -29.83136,30.1769 0,17.04649 13.01522,30.29208 29.601,30.29208 z m 1.49733,-10.02058 c -11.17237,0 -19.81079,-8.86878 -19.81079,-20.38668 0,-11.5179 8.63842,-20.15632 19.81079,-20.15632 6.5652,0 12.55451,2.64911 16.35541,7.02591 v 26.376 c -3.8009,4.60716 -9.67503,7.14109 -16.35541,7.14109 z"
           style="fill:#ffffff;fill-opacity:1;stroke-width:4.31923"
           id="path911"
           inkscape:label="d" />
        <path
           d="m 362.70117,237.62023 c 17.0465,0 30.52244,-13.36076 30.52244,-30.40725 0,-17.04649 -13.47594,-30.52244 -30.52244,-30.52244 -17.04649,0 -30.52243,13.47595 -30.52243,30.52244 0,17.04649 13.47594,30.40725 30.52243,30.40725 z m 0,-10.13575 c -10.71164,0 -19.23489,-8.86878 -19.23489,-20.2715 0,-11.40272 8.52325,-20.38668 19.23489,-20.38668 10.71165,0 19.2349,8.98396 19.2349,20.38668 0,11.40272 -8.52325,20.2715 -19.2349,20.2715 z"
           style="fill:#ffffff;fill-opacity:1;stroke-width:4.31923"
           id="path909"
           inkscape:label="o" />
        <path
           d="m 296.51678,236.46844 h 11.5179 v -39.27603 c 2.99465,-6.91074 8.40806,-10.59647 15.20362,-10.59647 2.30358,0 4.60716,0.46071 6.79556,1.26697 V 177.4968 c -1.72768,-0.69108 -3.34019,-0.92144 -5.87412,-1.03661 -6.91074,0 -12.43934,3.22501 -16.12506,8.86878 v -7.48664 h -11.5179 z"
           style="fill:#ffffff;fill-opacity:1;stroke-width:4.31923"
           id="path907"
           inkscape:label="r" />
        <path
           d="m 223.3064,236.46844 h 12.0938 v -32.48047 h 25.2242 c 15.66434,0 26.37599,-9.79022 26.37599,-24.07241 0,-14.2822 -10.59647,-24.07242 -26.37599,-24.07242 h -37.318 z m 12.0938,-42.7314 v -27.29743 h 23.95723 c 9.44468,0 15.54916,5.29824 15.54916,13.59112 0,8.40807 -6.10448,13.70631 -15.54916,13.70631 z"
           style="fill:#ffffff;fill-opacity:1;stroke-width:4.31923"
           id="path905"
           inkscape:label="P" />
      </g>
    </g>
    <g
       id="Type"
       inkscape:label="Red Hat"
       transform="translate(-31.317308,16.79298)">
      <g
         aria-label="Red Hat"
         id="text879"
         style="fill:#ffffff;fill-opacity:1;stroke:none;stroke-width:4.31923"
         inkscape:label="text">
        <path
           d="m 667.44485,100.97629 c 3.45537,0 8.86878,-0.69107 12.20897,-1.72768 V 86.233383 c -3.10983,1.036611 -5.41341,1.382148 -8.40806,1.382148 -6.10449,0 -8.29289,-2.073222 -8.29289,-7.716993 V 53.17701 h 17.16167 V 40.046604 H 662.95287 V 21.157247 l -15.77952,3.570549 V 40.046604 H 634.84919 V 53.17701 h 12.32416 v 29.94654 c 0,11.748258 6.91074,17.85274 20.2715,17.85274 z"
           style="fill:#ffffff;fill-opacity:1;stroke-width:4.31923"
           id="path951"
           inkscape:label="t" />
        <path
           d="m 595.91903,101.09147 c 6.68038,0 12.32415,-1.612502 17.27685,-5.29823 v 4.26162 h 15.54917 V 61.124361 c 0,-14.167017 -9.3295,-22.229547 -25.56974,-22.229547 -8.75361,0 -17.27685,2.073222 -26.72153,6.450024 l 5.75895,11.633079 c 7.60181,-3.45537 13.24559,-4.952697 18.31346,-4.952697 8.40807,0 12.66969,3.570549 12.66969,10.481289 v 4.376802 c -4.60716,-1.612506 -9.55986,-2.418759 -14.74291,-2.418759 -15.31881,0 -24.41795,6.795561 -24.41795,18.198282 0,10.942005 8.86878,18.428636 21.88401,18.428636 z m -6.91074,-18.774173 c 0,-4.60716 4.26162,-7.486635 11.5179,-7.486635 4.60716,0 8.75361,0.691074 12.66969,2.30358 v 8.753604 c -3.57055,2.649117 -8.06253,3.916086 -13.24558,3.916086 -6.68039,0 -10.94201,-2.879475 -10.94201,-7.486635 z"
           style="fill:#ffffff;fill-opacity:1;stroke-width:4.31923"
           id="path949"
           inkscape:label="a" />
        <path
           d="M 493.87064,100.05486 H 510.5716 V 66.99849 h 37.08764 v 33.05637 h 16.70095 V 19.429562 H 547.65924 V 51.910041 H 510.5716 V 19.429562 h -16.70096 z"
           style="fill:#ffffff;fill-opacity:1;stroke-width:4.31923"
           id="path947"
           inkscape:label="H" />
        <path
           d="m 424.64826,100.86112 c 6.33485,0 12.20898,-1.958047 17.04649,-5.758954 v 4.952694 h 15.54917 V 16.780445 L 441.4644,19.429562 V 43.96269 c -4.83752,-3.109833 -10.48129,-4.722339 -16.35542,-4.722339 -17.39203,0 -30.98315,13.475943 -30.98315,30.752793 0,17.27685 13.47594,30.867976 30.52243,30.867976 z m 2.53394,-13.475947 c -9.90539,0 -17.50721,-7.601814 -17.50721,-17.392029 0,-9.905394 7.60182,-17.392029 17.50721,-17.392029 5.64377,0 10.82683,2.073222 14.2822,5.643771 v 23.381337 c -3.57055,3.800907 -8.52325,5.75895 -14.2822,5.75895 z"
           style="fill:#ffffff;fill-opacity:1;stroke-width:4.31923"
           id="path945"
           inkscape:label="d" />
        <path
           d="m 358.30536,101.20665 c 9.67504,0 17.04649,-2.649114 24.41795,-8.638422 L 372.3572,83.12355 c -3.10983,3.109833 -7.94735,4.837518 -13.24559,4.837518 -8.29288,0 -14.74291,-5.183055 -16.81613,-12.554511 h 44.45909 v -4.146444 c 0,-18.42864 -12.66969,-32.25012 -29.71618,-32.25012 -17.27685,0 -30.86797,13.706301 -30.86797,31.09833 0,17.507208 14.05184,31.098327 32.13494,31.098327 z M 342.06512,64.119015 c 1.72769,-7.371456 7.37146,-12.093795 14.62773,-12.093795 7.02592,0 12.78487,4.952697 14.51256,12.093795 z"
           style="fill:#ffffff;fill-opacity:1;stroke-width:4.31923"
           id="path943"
           inkscape:label="e" />
        <path
           d="m 255.22036,100.05486 h 16.70095 V 69.186891 h 18.19829 l 15.77952,30.867969 h 18.659 L 306.70537,66.768132 c 9.55986,-3.800907 15.77952,-12.093795 15.77952,-22.344726 0,-14.742913 -11.5179,-24.993844 -27.87331,-24.993844 H 255.22036 Z M 271.92131,55.48059 V 33.826937 h 21.19294 c 7.48663,0 12.43933,4.376803 12.43933,10.826827 0,6.565203 -4.9527,10.826826 -12.43933,10.826826 z"
           style="fill:#ffffff;fill-opacity:1;stroke-width:4.31923"
           id="path941"
           inkscape:label="R" />
      </g>
    </g>
    <g
       id="Hat_icon"
       data-name="Hat icon">
      <path
         id="Red_hat"
         data-name="Red hat"
         class="cls-2"
         d="m 129,92.24 c 12.5,0 30.61,-2.58 30.61,-17.46 A 14,14 0 0 0 159.3,71.36 L 151.82,39 c -1.72,-7.12 -3.23,-10.35 -15.74,-16.6 -9.7,-5 -30.82,-13.15 -37.07,-13.15 -5.82,0 -7.55,7.54 -14.45,7.54 -6.68,0 -11.64,-5.6 -17.89,-5.6 -6,0 -9.92,4.1 -12.93,12.5 0,0 -8.41,23.72 -9.49,27.16 A 6.43,6.43 0 0 0 44,52.79 c 0,9.21 36.32,39.45 85,39.45 z m 32.55,-11.42 c 1.73,8.19 1.73,9.05 1.73,10.13 0,14 -15.74,21.77 -36.44,21.77 -46.77,0 -87.73,-27.37 -87.73,-45.48 a 18.32,18.32 0 0 1 1.51,-7.33 C 23.77,60.77 2,63.79 2,83 c 0,31.48 74.59,70.28 133.65,70.28 45.27,0 56.7,-20.48 56.7,-36.65 0,-12.75 -11,-27.19 -30.83,-35.81 z" />
      <path
         id="Black_band"
         data-name="Black band"
         d="m 161.52,80.82 c 1.73,8.19 1.73,9.05 1.73,10.13 0,14 -15.74,21.77 -36.44,21.77 -46.77,0 -87.73,-27.37 -87.73,-45.48 a 18.32,18.32 0 0 1 1.51,-7.33 l 3.66,-9.06 A 6.43,6.43 0 0 0 44,52.79 c 0,9.21 36.32,39.45 85,39.45 12.5,0 30.61,-2.58 30.61,-17.46 a 14,14 0 0 0 -0.31,-3.42 z" />
    </g>
  </g>
</svg>
