<?xml version="1.0" encoding="UTF-8" standalone="no"?>
<svg
   xmlns:dc="http://purl.org/dc/elements/1.1/"
   xmlns:cc="http://creativecommons.org/ns#"
   xmlns:rdf="http://www.w3.org/1999/02/22-rdf-syntax-ns#"
   xmlns:svg="http://www.w3.org/2000/svg"
   xmlns="http://www.w3.org/2000/svg"
   xmlns:sodipodi="http://sodipodi.sourceforge.net/DTD/sodipodi-0.dtd"
   xmlns:inkscape="http://www.inkscape.org/namespaces/inkscape"
   id="Artwork"
   viewBox="0 0 1152.9999 168.45"
   version="1.1"
   sodipodi:docname="RHPDS-Logo.svg"
   width="267"
   height="39"
   inkscape:version="1.0.2 (e86c870879, 2021-01-15)">
  <metadata
     id="metadata62">
    <rdf:RDF>
      <cc:Work
         rdf:about="">
        <dc:format>image/svg+xml</dc:format>
        <dc:type
           rdf:resource="http://purl.org/dc/dcmitype/StillImage" />
        <dc:title>Logo-Red_Hat-Ecosystem_Catalog-A-Reverse-RGB</dc:title>
      </cc:Work>
    </rdf:RDF>
  </metadata>
  <sodipodi:namedview
     pagecolor="#000000"
     bordercolor="#666666"
     borderopacity="1"
     objecttolerance="10"
     gridtolerance="10"
     guidetolerance="10"
     inkscape:pageopacity="0"
     inkscape:pageshadow="2"
     inkscape:window-width="1920"
     inkscape:window-height="1016"
     id="namedview60"
     showgrid="false"
     inkscape:pagecheckerboard="false"
     showguides="false"
     inkscape:zoom="0.9083078"
     inkscape:cx="363.24511"
     inkscape:cy="84.224998"
     inkscape:window-x="1920"
     inkscape:window-y="27"
     inkscape:window-maximized="1"
     inkscape:current-layer="text66" />
  <defs
     id="defs4">
    <style
       id="style2">.cls-1{fill:#fff;}.cls-2{fill:#e00;}</style>
  </defs>
  <title
     id="title6">Logo-Red_Hat-Ecosystem_Catalog-A-Reverse-RGB</title>
  <g
     id="Logos"
     sodipodi:insensitive="true"
     inkscape:groupmode="layer"
     inkscape:label="Logo">
    <g
       aria-label="Product Demo System"
       id="text66"
       style="fill:#ffffff;fill-opacity:1;stroke:none"
       inkscape:label="Product Demo System">
      <path
         d="m 318.55534,148.24049 h 11.40667 v -20.76801 h 16.20534 c 10.69867,0 18.48667,-7.15867 18.48667,-16.992 0,-10.14801 -7.63067,-17.306678 -18.48667,-17.306678 h -27.61201 z m 11.40667,-30.20801 v -15.02534 h 14.94667 c 4.956,0 8.18134,2.98933 8.18134,7.552 0,4.48401 -3.22534,7.47334 -8.18134,7.47334 z"
         id="path137" />
      <path
         d="m 371.34057,148.24049 h 10.77734 v -26.58934 c 2.04533,-3.85467 5.664,-6.05734 9.912,-6.05734 1.96667,0 3.93334,0.39334 5.50667,1.10134 v -9.44001 c -1.10133,-0.62933 -2.28133,-0.86533 -4.484,-0.944 -4.56267,0 -8.33867,1.96667 -10.93467,5.50667 v -4.56267 h -10.77734 z"
         id="path139" />
      <path
         d="m 421.76571,149.02716 c 12.272,0 21.86934,-9.28267 21.86934,-21.24001 0,-11.95734 -9.59734,-21.31868 -21.86934,-21.31868 -12.27201,0 -21.86935,9.36134 -21.86935,21.31868 0,11.95734 9.59734,21.24001 21.86935,21.24001 z m 0,-9.36134 c -6.37201,0 -11.32801,-5.192 -11.32801,-11.87867 0,-6.68667 5.03467,-11.95734 11.32801,-11.95734 6.372,0 11.40667,5.27067 11.40667,11.95734 0,6.68667 -5.03467,11.87867 -11.40667,11.87867 z"
         id="path141" />
      <path
         d="m 469.20167,148.79116 c 4.32667,0 8.33867,-1.33733 11.64267,-3.93333 v 3.38266 h 10.62001 V 91.364468 l -10.77734,1.809334 v 16.756008 c -3.304,-2.124 -7.15867,-3.22534 -11.17067,-3.22534 -11.87867,0 -21.16134,9.20401 -21.16134,21.00401 0,11.80001 9.204,21.08268 20.84667,21.08268 z m 1.73067,-9.204 c -6.76534,0 -11.95734,-5.19201 -11.95734,-11.87868 0,-6.76533 5.192,-11.87867 11.95734,-11.87867 3.85467,0 7.39467,1.416 9.75467,3.85467 v 15.96934 c -2.43867,2.596 -5.82134,3.93334 -9.75467,3.93334 z"
         id="path143" />
      <path
         d="m 515.85102,149.02716 c 4.56267,0 8.496,-1.416 11.564,-4.09067 v 3.304 h 10.77734 v -40.98535 h -10.77734 v 28.39868 c -1.96667,2.596 -4.79867,4.09067 -8.496,4.09067 -5.11334,0 -8.49601,-3.38267 -8.49601,-8.65334 v -23.83601 h -10.77733 v 25.40935 c 0,9.676 6.68667,16.36267 16.20534,16.36267 z"
         id="path145" />
      <path
         d="m 566.1976,149.02716 c 6.29333,0 12.42934,-2.67467 16.67734,-7.23734 l -6.45067,-6.76533 c -2.91067,3.14667 -6.05734,4.56267 -9.75467,4.56267 -6.372,0 -11.24934,-5.03467 -11.24934,-11.80001 0,-6.76534 4.79867,-11.95734 11.01334,-11.95734 3.85467,0 7.15867,1.652 10.148,4.956 l 6.60801,-7.00133 c -4.24801,-4.64134 -10.46268,-7.31601 -16.99201,-7.31601 -12.11467,0 -21.47601,9.36134 -21.47601,21.31868 0,11.95734 9.36134,21.24001 21.47601,21.24001 z"
         id="path147" />
      <path
         d="m 608.67746,148.86983 c 2.36,0 6.05733,-0.472 8.33867,-1.18 v -8.88934 c -2.124,0.708 -3.69734,0.944 -5.74267,0.944 -4.16934,0 -5.664,-1.416 -5.664,-5.27067 v -18.25067 h 11.72133 v -8.96801 H 605.60946 V 94.353803 l -10.77734,2.438667 v 10.46267 h -8.41734 v 8.96801 h 8.41734 v 20.45334 c 0,8.024 4.72,12.19334 13.84534,12.19334 z"
         id="path149" />
      <path
         d="m 639.12132,148.24049 h 21.16134 c 16.44134,0 29.10668,-11.95733 29.10668,-27.45468 0,-15.576 -12.66534,-27.612008 -29.10668,-27.612008 h -21.16134 z m 11.40667,-10.148 v -34.77068 h 9.676 c 9.75467,0 17.38534,7.63067 17.38534,17.464 0,9.75468 -7.63067,17.30668 -17.38534,17.30668 z"
         id="path151" />
      <path
         d="m 716.52926,149.02716 c 6.60801,0 11.64268,-1.80933 16.67734,-5.9 l -7.08,-6.45067 c -2.124,2.124 -5.428,3.304 -9.04667,3.304 -5.664,0 -10.06934,-3.54 -11.48534,-8.57467 h 30.36535 v -2.832 c 0,-12.58667 -8.65334,-22.02668 -20.29601,-22.02668 -11.80001,0 -21.08268,9.36134 -21.08268,21.24001 0,11.95734 9.59734,21.24001 21.94801,21.24001 z m -11.092,-25.33068 c 1.18,-5.03467 5.03467,-8.26 9.99067,-8.26 4.79867,0 8.732,3.38267 9.912,8.26 z"
         id="path153" />
      <path
         d="m 742.56783,148.24049 h 10.77733 v -28.71334 c 1.80934,-2.51734 4.40534,-3.776 7.63067,-3.776 4.72001,0 7.70934,3.38266 7.70934,8.65333 v 23.83601 h 10.77734 v -25.40934 c 0,-1.10133 -0.0787,-2.04534 -0.236,-2.98934 1.888,-2.67466 4.64133,-4.09066 7.86667,-4.09066 4.72,0 7.788,3.38266 7.788,8.65333 v 23.83601 h 10.69867 v -25.40934 c 0,-9.67601 -6.45066,-16.36268 -15.65467,-16.36268 -5.58533,0 -10.148,2.12401 -13.53067,6.13601 -2.67467,-3.85467 -7.08001,-6.13601 -12.35067,-6.13601 -4.16934,0 -7.78801,1.33734 -10.69868,3.93334 v -3.14667 h -10.77733 z"
         id="path155" />
      <path
         d="m 833.82108,149.02716 c 12.27201,0 21.86934,-9.28267 21.86934,-21.24001 0,-11.95734 -9.59733,-21.31868 -21.86934,-21.31868 -12.27201,0 -21.86934,9.36134 -21.86934,21.31868 0,11.95734 9.59733,21.24001 21.86934,21.24001 z m 0,-9.36134 c -6.372,0 -11.328,-5.192 -11.328,-11.87867 0,-6.68667 5.03466,-11.95734 11.328,-11.95734 6.372,0 11.40667,5.27067 11.40667,11.95734 0,6.68667 -5.03467,11.87867 -11.40667,11.87867 z"
         id="path157" />
      <path
         d="m 898.48489,149.02716 c 14.16001,0 23.28534,-6.844 23.28534,-17.62134 0,-8.496 -5.50666,-13.68801 -16.52,-15.49734 l -10.38401,-1.73067 c -5.664,-0.86533 -7.86667,-2.596 -7.86667,-5.97867 0,-3.776 3.93334,-6.21467 10.06934,-6.21467 5.97867,0 11.48534,2.124 17.38534,6.60801 l 6.136,-8.49601 c -6.136,-4.798667 -14.71067,-7.709335 -22.73467,-7.709335 -13.37334,0 -21.63335,6.372003 -21.63335,16.677345 0,8.024 4.87734,13.13734 14.31734,14.71067 l 10.93468,1.888 c 6.52933,1.10133 9.04667,2.98933 9.04667,6.76534 0,4.248 -4.32667,6.92267 -11.24934,6.92267 -6.60801,0 -12.19334,-2.43867 -18.64401,-8.02401 l -6.52934,8.18134 c 6.60801,6.05734 15.49734,9.51867 24.38668,9.51867 z"
         id="path159" />
      <path
         d="m 930.58071,165.15383 c 8.88934,0 13.84534,-3.69733 18.17201,-13.688 l 18.88001,-44.21069 h -11.64267 l -11.56401,27.92668 -10.22667,-27.92668 h -11.87867 l 15.96934,41.37869 -0.62933,1.57333 c -1.57334,3.69734 -4.32667,5.58534 -8.18134,5.58534 -1.57333,0 -2.596,-0.0787 -3.776,-0.31467 v 9.28267 c 1.18,0.236 2.98933,0.39333 4.87733,0.39333 z"
         id="path161" />
      <path
         d="m 987.29934,149.02716 c 10.30534,0 17.93606,-5.74267 17.93606,-13.53067 0,-6.372 -4.4841,-10.54134 -12.50805,-11.72134 l -7.86667,-1.18 c -4.01201,-0.55067 -5.58534,-1.652 -5.58534,-3.93334 0,-2.36 2.596,-4.012 6.45067,-4.012 4.16933,0 8.18134,1.25867 12.66534,4.012 l 5.19205,-7.00133 c -5.11339,-3.38267 -10.85605,-5.11334 -16.83472,-5.11334 -10.46268,0 -17.07068,5.11334 -17.07068,12.98001 0,6.608 4.32667,10.77734 12.42934,11.95734 l 7.86667,1.18 c 3.54,0.55066 5.11334,1.73066 5.11334,3.85467 0,2.67466 -3.14667,4.40533 -7.94534,4.40533 -4.32667,0 -8.496,-1.49467 -13.29467,-4.72 l -5.34934,7.15867 c 4.64134,3.69733 11.32801,5.664 18.80134,5.664 z"
         id="path163" />
      <path
         d="m 1029.2286,148.86983 c 2.36,0 6.0574,-0.472 8.3387,-1.18 v -8.88934 c -2.124,0.708 -3.6973,0.944 -5.7427,0.944 -4.1693,0 -5.664,-1.416 -5.664,-5.27067 v -18.25067 h 11.7214 v -8.96801 h -11.7214 V 94.353803 l -10.7773,2.438667 v 10.46267 h -8.4173 v 8.96801 h 8.4173 v 20.45334 c 0,8.024 4.72,12.19334 13.8453,12.19334 z"
         id="path165" />
      <path
         d="m 1062.7406,149.02716 c 6.608,0 11.6427,-1.80933 16.6773,-5.9 l -7.08,-6.45067 c -2.124,2.124 -5.428,3.304 -9.0466,3.304 -5.664,0 -10.0694,-3.54 -11.4854,-8.57467 h 30.3654 v -2.832 c 0,-12.58667 -8.6534,-22.02668 -20.296,-22.02668 -11.8,0 -21.0827,9.36134 -21.0827,21.24001 0,11.95734 9.5973,21.24001 21.948,21.24001 z m -11.092,-25.33068 c 1.18,-5.03467 5.0347,-8.26 9.9907,-8.26 4.7986,0 8.732,3.38267 9.912,8.26 z"
         id="path167" />
      <path
         d="m 1088.7792,148.24049 h 10.7773 v -28.71334 c 1.8093,-2.51734 4.4053,-3.776 7.6307,-3.776 4.72,0 7.7093,3.38266 7.7093,8.65333 v 23.83601 h 10.7773 v -25.40934 c 0,-1.10133 -0.079,-2.04534 -0.236,-2.98934 1.888,-2.67466 4.6414,-4.09066 7.8667,-4.09066 4.72,0 7.788,3.38266 7.788,8.65333 v 23.83601 h 10.6987 v -25.40934 c 0,-9.67601 -6.4507,-16.36268 -15.6547,-16.36268 -5.5853,0 -10.148,2.12401 -13.5307,6.13601 -2.6746,-3.85467 -7.08,-6.13601 -12.3506,-6.13601 -4.1694,0 -7.788,1.33734 -10.6987,3.93334 v -3.14667 h -10.7773 z"
         id="path169" />
    </g>
    <g
       id="Type"
       inkscape:label="Red Hat">
      <path
         class="cls-1"
         d="m 318.62,9.25 h 25.44 c 11.13,0 18.65,6.72 18.65,16.56 0,7.36 -4.48,13 -11.52,15.36 l 12.48,24.08 h -9.29 l -11.59,-23 H 327 v 23 h -8.4 z m 8.4,7.36 v 18.72 h 16.33 c 6.56,0 10.87,-3.76 10.87,-9.36 0,-5.6 -4.31,-9.36 -10.87,-9.36 z"
         id="path8" />
      <path
         class="cls-1"
         d="M 387.5,66 A 21,21 0 0 1 366.14,44.88 c 0,-11.76 9,-21 20.4,-21 11.21,0 19.68,9.28 19.68,21.28 v 2.32 h -32.16 a 13.74,13.74 0 0 0 13.76,11.68 15.84,15.84 0 0 0 10.32,-3.6 l 5.13,5 A 24.33,24.33 0 0 1 387.5,66 Z M 374.14,41.49 h 24.16 c -1.19,-6.24 -6,-10.88 -11.92,-10.88 -6.16,0 -11.04,4.39 -12.24,10.88 z"
         id="path10" />
      <path
         class="cls-1"
         d="m 445.18,61.41 a 19.23,19.23 0 0 1 -12.48,4.48 c -11.52,0 -20.56,-9.2 -20.56,-21 a 20.72,20.72 0 0 1 33,-17 V 9.25 l 8,-1.76 v 57.76 h -7.92 z M 433.82,58.93 A 14.67,14.67 0 0 0 445.1,54.05 V 35.57 a 14.89,14.89 0 0 0 -11.28,-4.8 13.63,13.63 0 0 0 -13.84,14 13.77,13.77 0 0 0 13.84,14.16 z"
         id="path12" />
      <path
         class="cls-1"
         d="m 480.22,9.25 h 8.4 v 24 h 29.76 v -24 h 8.41 v 56 h -8.41 v -24.4 h -29.76 v 24.4 h -8.4 z"
         id="path14" />
      <path
         class="cls-1"
         d="m 534.38,53.57 c 0,-7.68 6.24,-12.4 16.48,-12.4 A 28.75,28.75 0 0 1 562,43.41 v -4.32 c 0,-5.76 -3.44,-8.64 -9.92,-8.64 -3.76,0 -7.6,1 -12.64,3.44 l -3,-6 c 6.08,-2.88 11.36,-4.16 16.72,-4.16 10.56,0 16.64,5.2 16.64,14.56 v 27 H 562 V 61.73 A 19.32,19.32 0 0 1 549.34,66 c -8.88,0 -14.96,-5.07 -14.96,-12.43 z m 16.8,6.48 A 15.66,15.66 0 0 0 562,56.21 v -7 a 21.15,21.15 0 0 0 -10.48,-2.48 c -5.84,0 -9.44,2.64 -9.44,6.72 -0.02,3.88 3.66,6.6 9.1,6.6 z"
         id="path16" />
      <path
         class="cls-1"
         d="m 582.7,31.25 h -8.64 v -6.72 h 8.64 v -10.4 l 7.92,-1.92 v 12.32 h 12 v 6.72 h -12 v 22.08 c 0,4.16 1.68,5.68 6,5.68 a 15.68,15.68 0 0 0 5.84,-1 v 6.72 a 26.48,26.48 0 0 1 -7.59,1.2 c -7.93,0 -12.17,-3.76 -12.17,-10.8 z"
         id="path18" />
    </g>
    <g
       id="Hat_icon"
       data-name="Hat icon">
      <path
         id="Red_hat"
         data-name="Red hat"
         class="cls-2"
         d="m 129,92.24 c 12.5,0 30.61,-2.58 30.61,-17.46 A 14,14 0 0 0 159.3,71.36 L 151.82,39 c -1.72,-7.12 -3.23,-10.35 -15.74,-16.6 -9.7,-5 -30.82,-13.15 -37.07,-13.15 -5.82,0 -7.55,7.54 -14.45,7.54 -6.68,0 -11.64,-5.6 -17.89,-5.6 -6,0 -9.92,4.1 -12.93,12.5 0,0 -8.41,23.72 -9.49,27.16 A 6.43,6.43 0 0 0 44,52.79 c 0,9.21 36.32,39.45 85,39.45 z m 32.55,-11.42 c 1.73,8.19 1.73,9.05 1.73,10.13 0,14 -15.74,21.77 -36.44,21.77 -46.77,0 -87.73,-27.37 -87.73,-45.48 a 18.32,18.32 0 0 1 1.51,-7.33 C 23.77,60.77 2,63.79 2,83 c 0,31.48 74.59,70.28 133.65,70.28 45.27,0 56.7,-20.48 56.7,-36.65 0,-12.75 -11,-27.19 -30.83,-35.81 z" />
      <path
         id="Black_band"
         data-name="Black band"
         d="m 161.52,80.82 c 1.73,8.19 1.73,9.05 1.73,10.13 0,14 -15.74,21.77 -36.44,21.77 -46.77,0 -87.73,-27.37 -87.73,-45.48 a 18.32,18.32 0 0 1 1.51,-7.33 l 3.66,-9.06 A 6.43,6.43 0 0 0 44,52.79 c 0,9.21 36.32,39.45 85,39.45 12.5,0 30.61,-2.58 30.61,-17.46 a 14,14 0 0 0 -0.31,-3.42 z" />
    </g>
    <path
       id="Dividing_line"
       data-name="Dividing line"
       class="cls-1"
       d="m 255.47,160.75 a 2.25,2.25 0 0 1 -2.25,-2.25 V 4.25 a 2.25,2.25 0 0 1 4.5,0 V 158.5 a 2.25,2.25 0 0 1 -2.25,2.25 z" />
  </g>
</svg>
