<svg id="Layer_1" data-name="Layer 1" xmlns="http://www.w3.org/2000/svg" viewBox="0 0 72 38.16"><defs><style>.cls-1{fill:#e00;}.cls-2{fill:#fff;}</style></defs><title>Logo-Red_Hat-Summit-A-Standard-RGB</title><polygon class="cls-1" points="71.49 0.9 0.51 0.9 0.51 32.54 30.75 32.54 36.1 37.9 41.45 32.54 71.49 32.54 71.49 0.9"/><path class="cls-2" d="M8.9,22.07a5.21,5.21,0,0,0,3.49,1.46c1.19,0,1.89-.38,1.89-1s-.4-.87-1.45-1.05l-2.31-.41a2.83,2.83,0,0,1-2.66-2.88c0-2,1.62-3.27,4.31-3.27a7.35,7.35,0,0,1,4.41,1.5l-1.37,1.91A5.11,5.11,0,0,0,12,17.06c-1.05,0-1.7.35-1.7.92s.36.78,1.24.93l2.18.36c2,.33,3.09,1.37,3.09,3,0,2.14-1.75,3.45-4.6,3.45A7.41,7.41,0,0,1,7.46,24Z"/><path class="cls-2" d="M20.24,22.18a1.35,1.35,0,0,0,1.44,1.44A1.77,1.77,0,0,0,23.1,23V17.62h2.43v7.93H23.1V25A3.39,3.39,0,0,1,21,25.7a3.05,3.05,0,0,1-3.17-3.19V17.62h2.43Z"/><path class="cls-2" d="M27,17.62h2.43v.51a3.17,3.17,0,0,1,2-.66,2.91,2.91,0,0,1,2.36,1.1,3.36,3.36,0,0,1,2.58-1.09,3,3,0,0,1,3.07,3.19v4.89H37V21a1.29,1.29,0,0,0-1.29-1.44,1.59,1.59,0,0,0-1.3.59c0,.17,0,.33,0,.51v4.89H32V21a1.29,1.29,0,0,0-1.29-1.44,1.52,1.52,0,0,0-1.28.57v5.42H27Z"/><path class="cls-2" d="M40.89,17.62h2.43v.51a3.17,3.17,0,0,1,2-.66,2.94,2.94,0,0,1,2.36,1.1,3.36,3.36,0,0,1,2.58-1.09,3,3,0,0,1,3.07,3.19v4.89H50.88V21a1.29,1.29,0,0,0-1.29-1.44,1.6,1.6,0,0,0-1.3.59c0,.17,0,.33,0,.51v4.89H45.89V21a1.29,1.29,0,0,0-1.29-1.44,1.52,1.52,0,0,0-1.28.57v5.42H40.89Z"/><path class="cls-2" d="M54.63,15.55A1.34,1.34,0,1,1,56,16.88a1.34,1.34,0,0,1-1.35-1.33Zm2.56,10H54.76V17.62h2.43Z"/><path class="cls-2" d="M59.81,19.64h-1.6v-2h1.6v-2l2.44-.52v2.56h2.21v2H62.25v3c0,.71.27,1,1,1a3.36,3.36,0,0,0,1.09-.17v2a6.89,6.89,0,0,1-1.69.24c-1.91,0-2.88-.85-2.88-2.52Z"/><path class="cls-2" d="M48.16,12.24c0,.92.55,1.36,1.55,1.36a3.92,3.92,0,0,0,.91-.13V12.41a1.9,1.9,0,0,1-.58.09c-.42,0-.57-.13-.57-.51V10.36h1.2V9.27h-1.2V7.89l-1.31.28v1.1H47.3v1.09h.86Zm-4.06,0c0-.28.28-.42.71-.42a2.86,2.86,0,0,1,.77.1v.54a1.66,1.66,0,0,1-.81.21c-.42,0-.67-.17-.67-.43m.4,1.35a2,2,0,0,0,1.18-.33v.26H47V10.81c0-1-.71-1.61-1.88-1.61a4.57,4.57,0,0,0-2,.46l.47,1a3.56,3.56,0,0,1,1.29-.33c.54,0,.82.21.82.64v.21a3.23,3.23,0,0,0-1-.12c-1.1,0-1.76.46-1.76,1.28a1.38,1.38,0,0,0,1.55,1.32m-7.1-.07h1.38V11.33h2.34v2.21h1.39V7.89H41.12v2.17H38.79V7.89H37.4ZM32.1,11.4a1.08,1.08,0,0,1,1.08-1.08h0a1.3,1.3,0,0,1,.9.33v1.49a1.3,1.3,0,0,1-.9.33,1.09,1.09,0,0,1-1.13-1.05v0m2,2.15h1.29V7.61l-1.31.28v1.6a2.2,2.2,0,0,0-2.21,3.81,2.28,2.28,0,0,0,1.08.3,1.93,1.93,0,0,0,1.15-.38Zm-5.93-3.28a1,1,0,0,1,.9.68H27.33a.89.89,0,0,1,.89-.68M26,11.4a2.24,2.24,0,0,0,2.32,2.21A2.56,2.56,0,0,0,30.13,13l-.87-.76a1.15,1.15,0,0,1-.85.33,1.1,1.1,0,0,1-1.05-.68h3v-.33A2.19,2.19,0,1,0,26,11.35v.05M23.76,9.08a.64.64,0,1,1,0,1.28H22.39V9.08ZM21,13.54h1.39v-2h1.06l1.07,2h1.55l-1.24-2.26a1.71,1.71,0,0,0,1.06-1.59,1.83,1.83,0,0,0-2-1.8H21Z"/></svg>
